<svg width="80" height="80" viewBox="0 0 80 80" fill="none" xmlns="http://www.w3.org/2000/svg">
<path d="M40.1739 60.446L34.6609 57.264C34.1549 56.972 33.5229 57.337 33.5229 57.921V67.403C33.5229 68.21 33.9519 68.956 34.6489 69.362L40.1679 72.575C40.6739 72.87 41.3079 72.505 41.3079 71.919V62.409C41.3079 61.599 40.8759 60.85 40.1739 60.446Z" fill="#A83E3E"/>
<path d="M58.5151 39.016L42.4261 48.389C41.7341 48.792 41.3081 49.533 41.3081 50.334V59.807C41.3081 60.382 41.9301 60.742 42.4291 60.455L58.5111 51.202C59.2091 50.8 59.6401 50.056 59.6401 49.251V39.662C59.6401 39.085 59.0141 38.725 58.5161 39.016H58.5151Z" fill="#A83E3E"/>
<path d="M41.3071 47.729V41.294C41.3071 40.485 40.8761 39.738 40.1751 39.333L21.4961 28.544C20.9911 28.252 20.3601 28.617 20.3601 29.2V35.653C20.3601 36.462 20.7921 37.21 21.4931 37.615L40.1711 48.386C40.6761 48.677 41.3061 48.313 41.3061 47.73L41.3071 47.729Z" fill="#A83E3E"/>
<path d="M41.313 32.238C41.306 33.977 41.3 37.051 41.335 38.759C41.347 39.326 41.962 39.669 42.452 39.386L53.382 33.059C54.078 32.656 54.507 31.913 54.507 31.109V24.594C54.507 24.02 53.885 23.662 53.389 23.95L42.436 30.301C41.744 30.702 41.316 31.438 41.313 32.238Z" fill="#A83E3E"/>
<path d="M29.338 23.98L40.173 30.288C40.676 30.581 41.307 30.218 41.307 29.636V23.195C41.307 22.391 40.878 21.647 40.181 21.245L29.35 14.989C28.847 14.699 28.218 15.061 28.218 15.642V22.033C28.218 22.835 28.644 23.576 29.337 23.979L29.338 23.98Z" fill="#A83E3E"/>
<path d="M42.4389 21.224L45.4389 19.446C46.1259 19.039 46.5469 18.299 46.5469 17.5V8.07097C46.5469 7.49797 45.9309 7.13697 45.4309 7.41697L42.4629 9.08097C41.7489 9.48097 41.3069 10.236 41.3069 11.054V20.579C41.3069 21.16 41.9389 21.52 42.4389 21.224Z" fill="#A83E3E"/>
</svg>
