<?xml version="1.0" encoding="UTF-8"?>
<svg id="Layer_1" data-name="Layer 1" xmlns="http://www.w3.org/2000/svg" xmlns:xlink="http://www.w3.org/1999/xlink" viewBox="0 0 1126.51 885.7">
  <defs>
    <style>
      .cls-1 {
        fill: url(#linear-gradient-8);
      }

      .cls-2 {
        fill: url(#linear-gradient-7);
      }

      .cls-3 {
        fill: url(#linear-gradient-5);
      }

      .cls-4 {
        fill: url(#linear-gradient-6);
      }

      .cls-5 {
        fill: url(#linear-gradient-9);
      }

      .cls-6 {
        fill: url(#linear-gradient-4);
      }

      .cls-7 {
        fill: url(#linear-gradient-3);
      }

      .cls-8 {
        fill: url(#linear-gradient-2);
      }

      .cls-9 {
        fill: url(#linear-gradient);
      }

      .cls-10 {
        fill: url(#linear-gradient-43);
      }

      .cls-11 {
        fill: url(#linear-gradient-40);
      }

      .cls-12 {
        fill: url(#linear-gradient-41);
      }

      .cls-13 {
        fill: url(#linear-gradient-42);
      }

      .cls-14 {
        fill: url(#linear-gradient-45);
      }

      .cls-15 {
        fill: url(#linear-gradient-47);
      }

      .cls-16 {
        fill: url(#linear-gradient-44);
      }

      .cls-17 {
        fill: url(#linear-gradient-46);
      }

      .cls-18 {
        fill: url(#linear-gradient-10);
      }

      .cls-19 {
        fill: url(#linear-gradient-11);
      }

      .cls-20 {
        fill: url(#linear-gradient-12);
      }

      .cls-21 {
        fill: url(#linear-gradient-13);
      }

      .cls-22 {
        fill: url(#linear-gradient-19);
      }

      .cls-23 {
        fill: url(#linear-gradient-14);
      }

      .cls-24 {
        fill: url(#linear-gradient-21);
      }

      .cls-25 {
        fill: url(#linear-gradient-20);
      }

      .cls-26 {
        fill: url(#linear-gradient-22);
      }

      .cls-27 {
        fill: url(#linear-gradient-23);
      }

      .cls-28 {
        fill: url(#linear-gradient-28);
      }

      .cls-29 {
        fill: url(#linear-gradient-25);
      }

      .cls-30 {
        fill: url(#linear-gradient-32);
      }

      .cls-31 {
        fill: url(#linear-gradient-31);
      }

      .cls-32 {
        fill: url(#linear-gradient-33);
      }

      .cls-33 {
        fill: url(#linear-gradient-30);
      }

      .cls-34 {
        fill: url(#linear-gradient-15);
      }

      .cls-35 {
        fill: url(#linear-gradient-16);
      }

      .cls-36 {
        fill: url(#linear-gradient-17);
      }

      .cls-37 {
        fill: url(#linear-gradient-18);
      }

      .cls-38 {
        fill: url(#linear-gradient-35);
      }

      .cls-39 {
        fill: url(#linear-gradient-34);
      }

      .cls-40 {
        fill: url(#linear-gradient-36);
      }

      .cls-41 {
        fill: url(#linear-gradient-38);
      }

      .cls-42 {
        fill: url(#linear-gradient-27);
      }

      .cls-43 {
        fill: url(#linear-gradient-24);
      }

      .cls-44 {
        fill: url(#linear-gradient-26);
      }

      .cls-45 {
        fill: url(#linear-gradient-29);
      }

      .cls-46 {
        fill: url(#linear-gradient-37);
      }

      .cls-47 {
        fill: url(#linear-gradient-39);
      }
    </style>
    <linearGradient id="linear-gradient" x1="113.27" y1="336.8" x2="1013.24" y2="336.8" gradientUnits="userSpaceOnUse">
      <stop offset="0" stop-color="#5e0000"/>
      <stop offset="1" stop-color="#5e0000"/>
    </linearGradient>
    <linearGradient id="linear-gradient-2" x1="151.11" y1="336.8" x2="975.4" y2="336.8" gradientUnits="userSpaceOnUse">
      <stop offset="0" stop-color="#fff"/>
      <stop offset="1" stop-color="#fff"/>
    </linearGradient>
    <linearGradient id="linear-gradient-3" x1="177.5" y1="336.8" x2="949.01" y2="336.8" gradientUnits="userSpaceOnUse">
      <stop offset="0" stop-color="#9a0606"/>
      <stop offset="1" stop-color="#9a0606"/>
    </linearGradient>
    <linearGradient id="linear-gradient-4" x1="-3320.67" y1="-56.93" x2="-3318.92" y2="-56.93" gradientTransform="translate(666170.95 -10637.76) scale(200.5 -192.79)" xlink:href="#linear-gradient-2"/>
    <linearGradient id="linear-gradient-5" x1="148.31" y1="713.31" x2="200.31" y2="713.31" xlink:href="#linear-gradient"/>
    <linearGradient id="linear-gradient-6" x1="205.42" y1="710.81" x2="254.02" y2="710.81" xlink:href="#linear-gradient"/>
    <linearGradient id="linear-gradient-7" x1="260.31" y1="720.16" x2="310.01" y2="720.16" xlink:href="#linear-gradient"/>
    <linearGradient id="linear-gradient-8" x1="337.41" y1="713.31" x2="393.41" y2="713.31" xlink:href="#linear-gradient"/>
    <linearGradient id="linear-gradient-9" x1="401.31" y1="720.16" x2="451.01" y2="720.16" xlink:href="#linear-gradient"/>
    <linearGradient id="linear-gradient-10" x1="457.91" y1="711.46" x2="509.31" y2="711.46" xlink:href="#linear-gradient"/>
    <linearGradient id="linear-gradient-11" x1="513.71" y1="720.16" x2="563.41" y2="720.16" xlink:href="#linear-gradient"/>
    <linearGradient id="linear-gradient-12" x1="570.31" y1="719.56" x2="603.71" y2="719.56" xlink:href="#linear-gradient"/>
    <linearGradient id="linear-gradient-13" x1="625.91" y1="713.31" x2="681.41" y2="713.31" xlink:href="#linear-gradient"/>
    <linearGradient id="linear-gradient-14" x1="686" y1="720.16" x2="735.71" y2="720.16" xlink:href="#linear-gradient"/>
    <linearGradient id="linear-gradient-15" x1="742.6" y1="719.51" x2="791.2" y2="719.51" xlink:href="#linear-gradient"/>
    <linearGradient id="linear-gradient-16" x1="797.6" y1="720.16" x2="845.7" y2="720.16" xlink:href="#linear-gradient"/>
    <linearGradient id="linear-gradient-17" x1="848.6" y1="714.96" x2="882.6" y2="714.96" xlink:href="#linear-gradient"/>
    <linearGradient id="linear-gradient-18" x1="885.5" y1="720.16" x2="937.9" y2="720.16" xlink:href="#linear-gradient"/>
    <linearGradient id="linear-gradient-19" x1="945.2" y1="719.56" x2="978.6" y2="719.56" xlink:href="#linear-gradient"/>
    <linearGradient id="linear-gradient-20" x1="261" y1="787.98" x2="287.25" y2="787.98" xlink:href="#linear-gradient"/>
    <linearGradient id="linear-gradient-21" x1="300.8" y1="787.98" x2="321.59" y2="787.98" xlink:href="#linear-gradient"/>
    <linearGradient id="linear-gradient-22" x1="326.42" y1="791.66" x2="346.23" y2="791.66" xlink:href="#linear-gradient"/>
    <linearGradient id="linear-gradient-23" x1="349.41" y1="791.64" x2="366.6" y2="791.64" xlink:href="#linear-gradient"/>
    <linearGradient id="linear-gradient-24" x1="372.41" y1="791.46" x2="402.86" y2="791.46" xlink:href="#linear-gradient"/>
    <linearGradient id="linear-gradient-25" x1="407.16" y1="791.66" x2="423.75" y2="791.66" xlink:href="#linear-gradient"/>
    <linearGradient id="linear-gradient-26" x1="425.57" y1="788.51" x2="438.38" y2="788.51" xlink:href="#linear-gradient"/>
    <linearGradient id="linear-gradient-27" x1="440.79" y1="791.66" x2="459.55" y2="791.66" xlink:href="#linear-gradient"/>
    <linearGradient id="linear-gradient-28" x1="462.74" y1="791.64" x2="479.92" y2="791.64" xlink:href="#linear-gradient"/>
    <linearGradient id="linear-gradient-29" x1="484.54" y1="787.67" x2="503.58" y2="787.67" xlink:href="#linear-gradient"/>
    <linearGradient id="linear-gradient-30" x1="518.53" y1="788" x2="542.75" y2="788" xlink:href="#linear-gradient"/>
    <linearGradient id="linear-gradient-31" x1="545.58" y1="791.66" x2="565.39" y2="791.66" xlink:href="#linear-gradient"/>
    <linearGradient id="linear-gradient-32" x1="570.26" y1="787.46" x2="574.04" y2="787.46" xlink:href="#linear-gradient"/>
    <linearGradient id="linear-gradient-33" x1="580.2" y1="787.46" x2="583.98" y2="787.46" xlink:href="#linear-gradient"/>
    <linearGradient id="linear-gradient-34" x1="588.84" y1="791.66" x2="607.6" y2="791.66" xlink:href="#linear-gradient"/>
    <linearGradient id="linear-gradient-35" x1="611.17" y1="791.66" x2="630" y2="791.66" xlink:href="#linear-gradient"/>
    <linearGradient id="linear-gradient-36" x1="631.16" y1="788.51" x2="643.97" y2="788.51" xlink:href="#linear-gradient"/>
    <linearGradient id="linear-gradient-37" x1="647.19" y1="787.84" x2="651.95" y2="787.84" xlink:href="#linear-gradient"/>
    <linearGradient id="linear-gradient-38" x1="654.54" y1="791.66" x2="674.98" y2="791.66" xlink:href="#linear-gradient"/>
    <linearGradient id="linear-gradient-39" x1="676.06" y1="791.66" x2="694.82" y2="791.66" xlink:href="#linear-gradient"/>
    <linearGradient id="linear-gradient-40" x1="710.15" y1="787.98" x2="730.59" y2="787.98" xlink:href="#linear-gradient"/>
    <linearGradient id="linear-gradient-41" x1="735.17" y1="791.57" x2="746.65" y2="791.57" xlink:href="#linear-gradient"/>
    <linearGradient id="linear-gradient-42" x1="748.37" y1="791.66" x2="768.18" y2="791.66" xlink:href="#linear-gradient"/>
    <linearGradient id="linear-gradient-43" x1="772.94" y1="795.65" x2="791.98" y2="795.65" xlink:href="#linear-gradient"/>
    <linearGradient id="linear-gradient-44" x1="795.55" y1="791.66" x2="814.31" y2="791.66" xlink:href="#linear-gradient"/>
    <linearGradient id="linear-gradient-45" x1="819.45" y1="791.57" x2="830.93" y2="791.57" xlink:href="#linear-gradient"/>
    <linearGradient id="linear-gradient-46" x1="832.33" y1="788.51" x2="845.14" y2="788.51" xlink:href="#linear-gradient"/>
    <linearGradient id="linear-gradient-47" x1="845.07" y1="795.86" x2="865.51" y2="795.86" xlink:href="#linear-gradient"/>
  </defs>
  <g>
    <ellipse class="cls-9" cx="563.26" cy="336.8" rx="449.99" ry="298.95"/>
    <ellipse class="cls-8" cx="563.26" cy="336.8" rx="412.15" ry="273.82"/>
    <ellipse class="cls-7" cx="563.26" cy="336.8" rx="385.75" ry="256.27"/>
    <path class="cls-6" d="M466.58,489.35h0c-17.47,11.05-34.05,16.58-49.73,16.58h0c-10.05,0-16.82-2.35-20.31-7.06h0c5-3.88,7.51-9.69,7.51-17.43h0v-3.1c0-.85-.11-1.62-.34-2.3h0c-10.9-6.23-16.35-13.6-16.35-22.1,0-8.5,6.32-17.18,18.97-26.05h0c-3.71-4.7-5.56-9.72-5.56-15.05,0-5.33,1.25-10.3,3.75-14.92,2.55-4.65,5.99-8.7,10.32-12.16h0c9.16-7.62,18.16-11.43,27.01-11.43s15.12,2.22,18.83,6.67h0c-7.86,5.24-11.8,13.47-11.8,24.69s2.57,20.94,7.71,29.24c5.14,8.3,12.4,15.43,21.78,21.38h0c20.06,13.01,45.68,19.51,76.87,19.51h0c20.95,0,38.74-3.8,53.35-11.39h0c15.68-8.16,23.52-19.31,23.52-33.45h0c0-9.95-3.71-18.03-11.13-24.27h0c-11.53-9.69-29.62-19.92-54.29-30.69h0c-18.99-8.44-34.16-12.67-45.51-12.67h0c-11.57,0-24.33,2.98-38.27,8.93h0c3.71-7.06,5.56-13.63,5.56-19.72h0c0-1.39-2.08-3.19-6.23-5.4h0l-12.13-6.84c-38.16-22.27-60.72-42.95-67.69-62.05h0c-2.41-6.66-3.62-15-3.62-25.03s3.86-20.19,11.59-30.47c7.77-10.31,18.41-19.07,31.9-26.27h0c28.15-15.22,63.94-22.82,107.36-22.82h0c26.41,0,50.62,2.69,72.65,8.08h0c9.38,2.35,20.06,3.53,32.04,3.53h0c5.05,0,9.58-.17,13.6-.51,4.02-.34,7.57-1.76,10.66-4.25h0c2.81-2.64,4.22-4.99,4.22-7.06,0-2.07-.42-3.8-1.27-5.19h0c1.52-.42,3.64-.64,6.37-.64s5.72.6,8.98,1.79c3.26,1.16,6.21,2.78,8.85,4.85h0c5.9,4.7,8.85,10,8.85,15.9s-2.61,10.36-7.84,13.39h0c7.42,4.14,11.13,10.57,11.13,19.3h0c0,8.59-4.58,15.78-13.74,21.59h0c1.74,3.74,2.61,7.1,2.61,10.07s-.83,5.81-2.48,8.5-3.89,5-6.7,6.93h0c-6.34,4.31-12.35,6.46-18.03,6.46h0c-8.94,0-16.44-.98-22.52-2.93h0c3.71-5.53,5.56-11.46,5.56-17.81s-2.26-12.92-6.77-19.64c-4.47-6.72-10.72-12.57-18.77-17.55h0c-17.02-10.23-39.27-15.34-66.75-15.34h0c-17.47,0-31.77,3.39-42.89,10.16h0c-10.46,6.38-15.68,14.05-15.68,23.04h0c0,6.8,2.61,12.48,7.84,17.04h0c9.16,7.88,23.66,16.04,43.5,24.48h0l15.75,6.63c8.71,3.46,14.59,5.19,17.63,5.19s6.14-.2,9.18-.6c3.04-.42,6.41-.98,10.12-1.66h0c7.86-1.67,15.5-4.02,22.92-7.06h0l-4.22,11.6c-1.34,3.88-2.01,6.72-2.01,8.5h0c0,2.92,2.3,5.55,6.9,7.91h0c40.79,22.41,68.07,41.15,81.83,56.23h0c11.97,13.15,17.96,27.33,17.96,42.54s-3.93,28.29-11.8,39.23c-7.82,10.94-19.26,20.61-34.31,29.03h0c-33.2,18.81-76.29,28.22-129.28,28.22h0c-37.31,0-69.7-4.76-97.18-14.28ZM444.33,238h0c-8.31,2.24-12.47,7.99-12.47,17.26h0c0,18.96,19.97,39.77,59.92,62.43h0l19.64,11.22c6.75,3.88,9.74,6.86,8.98,8.93-.76,2.07-1.41,3.73-1.94,4.97-.58,1.25-1.18,2.42-1.81,3.53-.67,1.11-1.12,1.94-1.34,2.51h0c7.64-2.92,13.87-4.38,18.7-4.38h0c9.56,0,18.61,1.67,27.14,5.02h0c42.09,16.58,70.66,31.37,85.72,44.37h0c10.9,9.55,16.58,21.45,17.02,35.7h0c0,5.13-.54,9.42-1.61,12.88h0c11.53-4.7,17.29-12.17,17.29-22.4h0c0-9.97-2.12-17.65-6.37-23.04-4.24-5.41-9.2-10.23-14.88-14.45-5.67-4.22-13.05-8.81-22.12-13.77-9.03-4.99-20.2-10.38-33.51-16.19h0l-46.44-20.15c-38.2-15.9-67.22-32.7-87.06-50.41h0c-17.47-15.64-25.76-30.32-24.86-44.03Z"/>
  </g>
  <g>
    <path class="cls-3" d="M148.31,691.01v-10.7h52v10.7h-52ZM167.92,746.31v-66h12.7v66h-12.7Z"/>
    <path class="cls-4" d="M205.42,746.31v-71h12.7v16.3c0,1.4-.05,2.83-.15,4.3-.1,1.47-.25,2.97-.45,4.5-.2,1.54-.42,3.07-.65,4.6-.23,1.53-.48,3.07-.75,4.6h2.1c.93-3.6,2.13-6.65,3.6-9.15,1.47-2.5,3.35-4.42,5.65-5.75,2.3-1.33,5.12-2,8.45-2,6.07,0,10.6,2.12,13.6,6.35,3,4.23,4.5,10.65,4.5,19.25v28h-12.7v-26.2c0-5.73-.85-9.97-2.55-12.7-1.7-2.73-4.25-4.1-7.65-4.1-2.8,0-5.13.85-7,2.55-1.87,1.7-3.3,3.95-4.3,6.75s-1.6,5.97-1.8,9.5v24.2h-12.6Z"/>
    <path class="cls-2" d="M286.91,747.61c-4.2,0-7.95-.6-11.25-1.8s-6.08-2.95-8.35-5.25c-2.27-2.3-4-5.08-5.2-8.35-1.2-3.27-1.8-6.97-1.8-11.1s.58-7.93,1.75-11.4c1.17-3.47,2.85-6.47,5.05-9,2.2-2.53,4.88-4.5,8.05-5.9,3.17-1.4,6.78-2.1,10.85-2.1,3.8,0,7.2.63,10.2,1.9,3,1.27,5.53,3.15,7.6,5.65s3.6,5.6,4.6,9.3,1.33,7.98,1,12.85l-40.9.3v-7.3l33.6-.3-4.4,4.1c.4-3.8.1-6.92-.9-9.35-1-2.43-2.43-4.23-4.3-5.4-1.87-1.17-4-1.75-6.4-1.75-2.73,0-5.13.72-7.2,2.15-2.07,1.43-3.65,3.5-4.75,6.2-1.1,2.7-1.65,5.98-1.65,9.85,0,5.8,1.28,10.13,3.85,13,2.57,2.87,6.08,4.3,10.55,4.3,2,0,3.68-.25,5.05-.75,1.37-.5,2.52-1.17,3.45-2,.93-.83,1.68-1.78,2.25-2.85.57-1.07,1.02-2.2,1.35-3.4l11,2.5c-.53,2.47-1.4,4.67-2.6,6.6-1.2,1.93-2.75,3.6-4.65,5-1.9,1.4-4.15,2.47-6.75,3.2-2.6.73-5.63,1.1-9.1,1.1Z"/>
    <path class="cls-1" d="M337.41,746.31v-66h12.6v66h-12.6ZM344.51,718.01v-10.4h41.3v10.4h-41.3ZM380.81,746.31v-66h12.6v66h-12.6Z"/>
    <path class="cls-5" d="M427.91,747.61c-4.2,0-7.95-.6-11.25-1.8s-6.08-2.95-8.35-5.25c-2.27-2.3-4-5.08-5.2-8.35-1.2-3.27-1.8-6.97-1.8-11.1s.58-7.93,1.75-11.4c1.17-3.47,2.85-6.47,5.05-9,2.2-2.53,4.88-4.5,8.05-5.9,3.17-1.4,6.78-2.1,10.85-2.1,3.8,0,7.2.63,10.2,1.9,3,1.27,5.53,3.15,7.6,5.65s3.6,5.6,4.6,9.3,1.33,7.98,1,12.85l-40.9.3v-7.3l33.6-.3-4.4,4.1c.4-3.8.1-6.92-.9-9.35-1-2.43-2.43-4.23-4.3-5.4-1.87-1.17-4-1.75-6.4-1.75-2.73,0-5.13.72-7.2,2.15-2.07,1.43-3.65,3.5-4.75,6.2-1.1,2.7-1.65,5.98-1.65,9.85,0,5.8,1.28,10.13,3.85,13,2.57,2.87,6.08,4.3,10.55,4.3,2,0,3.68-.25,5.05-.75,1.37-.5,2.52-1.17,3.45-2,.93-.83,1.68-1.78,2.25-2.85.57-1.07,1.02-2.2,1.35-3.4l11,2.5c-.53,2.47-1.4,4.67-2.6,6.6-1.2,1.93-2.75,3.6-4.65,5-1.9,1.4-4.15,2.47-6.75,3.2-2.6.73-5.63,1.1-9.1,1.1Z"/>
    <path class="cls-18" d="M487.91,747.61c-3.33,0-6.2-.65-8.6-1.95-2.4-1.3-4.35-3.15-5.85-5.55-1.5-2.4-2.58-5.27-3.25-8.6h-1.8l.1,14.8h-10.6v-71h12.6v16.9c0,1.6-.1,3.33-.3,5.2-.2,1.87-.47,3.79-.8,5.75-.33,1.97-.7,3.95-1.1,5.95h2.1c.87-3.2,2.02-6.02,3.45-8.45,1.43-2.43,3.32-4.35,5.65-5.75,2.33-1.4,5.2-2.1,8.6-2.1,4.33,0,8.08,1.15,11.25,3.45,3.17,2.3,5.62,5.5,7.35,9.6,1.73,4.1,2.6,8.95,2.6,14.55s-.85,10.23-2.55,14.3-4.13,7.23-7.3,9.5c-3.17,2.27-7.02,3.4-11.55,3.4ZM483.91,737.21c2.47,0,4.63-.7,6.5-2.1,1.87-1.4,3.28-3.37,4.25-5.9.97-2.53,1.45-5.53,1.45-9s-.47-6.27-1.4-8.8c-.93-2.53-2.3-4.53-4.1-6-1.8-1.46-4-2.2-6.6-2.2-1.73,0-3.33.35-4.8,1.05-1.47.7-2.73,1.63-3.8,2.8-1.07,1.17-1.97,2.45-2.7,3.85-.73,1.4-1.29,2.85-1.65,4.35-.37,1.5-.55,2.88-.55,4.15v1.7c0,1.67.27,3.45.8,5.35.53,1.9,1.37,3.65,2.5,5.25,1.13,1.6,2.53,2.92,4.2,3.95,1.67,1.04,3.63,1.55,5.9,1.55Z"/>
    <path class="cls-19" d="M540.31,747.61c-4.2,0-7.95-.6-11.25-1.8s-6.08-2.95-8.35-5.25c-2.27-2.3-4-5.08-5.2-8.35-1.2-3.27-1.8-6.97-1.8-11.1s.58-7.93,1.75-11.4c1.17-3.47,2.85-6.47,5.05-9,2.2-2.53,4.88-4.5,8.05-5.9,3.17-1.4,6.78-2.1,10.85-2.1,3.8,0,7.2.63,10.2,1.9,3,1.27,5.53,3.15,7.6,5.65s3.6,5.6,4.6,9.3,1.33,7.98,1,12.85l-40.9.3v-7.3l33.6-.3-4.4,4.1c.4-3.8.1-6.92-.9-9.35-1-2.43-2.43-4.23-4.3-5.4-1.87-1.17-4-1.75-6.4-1.75-2.73,0-5.13.72-7.2,2.15-2.07,1.43-3.65,3.5-4.75,6.2-1.1,2.7-1.65,5.98-1.65,9.85,0,5.8,1.28,10.13,3.85,13,2.57,2.87,6.08,4.3,10.55,4.3,2,0,3.68-.25,5.05-.75,1.37-.5,2.52-1.17,3.45-2,.93-.83,1.68-1.78,2.25-2.85.57-1.07,1.02-2.2,1.35-3.4l11,2.5c-.53,2.47-1.4,4.67-2.6,6.6-1.2,1.93-2.75,3.6-4.65,5-1.9,1.4-4.15,2.47-6.75,3.2-2.6.73-5.63,1.1-9.1,1.1Z"/>
    <path class="cls-20" d="M570.31,746.31v-52.3h10.6l-.2,18h1.8c.6-4.27,1.53-7.82,2.8-10.65,1.27-2.83,3.03-4.97,5.3-6.4,2.27-1.43,5.07-2.15,8.4-2.15.67,0,1.38.03,2.15.1.77.07,1.62.23,2.55.5l-.5,13.3c-1.07-.4-2.15-.68-3.25-.85-1.1-.17-2.12-.25-3.05-.25-2.6,0-4.85.67-6.75,2-1.9,1.33-3.43,3.22-4.6,5.65-1.17,2.43-2.05,5.32-2.65,8.65v24.4h-12.6Z"/>
    <path class="cls-21" d="M653.61,747.61c-4.33,0-8.2-.42-11.6-1.25-3.4-.83-6.28-2.13-8.65-3.9-2.37-1.77-4.18-3.93-5.45-6.5-1.27-2.57-1.93-5.58-2-9.05l11.2-3.3c-.07,3.2.6,5.85,2,7.95,1.4,2.1,3.42,3.65,6.05,4.65,2.63,1,5.65,1.5,9.05,1.5s6.02-.4,8.25-1.2c2.23-.8,3.92-1.88,5.05-3.25,1.13-1.37,1.7-2.92,1.7-4.65,0-1.93-.7-3.48-2.1-4.65-1.4-1.17-3.29-2.13-5.65-2.9-2.37-.77-5.05-1.48-8.05-2.15-3.27-.73-6.45-1.53-9.55-2.4-3.1-.87-5.92-2.03-8.45-3.5-2.53-1.47-4.55-3.35-6.05-5.65s-2.25-5.22-2.25-8.75c0-4,1-7.45,3-10.35,2-2.9,4.92-5.17,8.75-6.8,3.83-1.63,8.42-2.45,13.75-2.45s9.87.78,13.8,2.35c3.93,1.57,7,3.85,9.2,6.85,2.2,3,3.37,6.53,3.5,10.6l-11.5,3.2c0-2.2-.35-4.12-1.05-5.75-.7-1.63-1.72-3-3.05-4.1-1.33-1.1-2.92-1.92-4.75-2.45-1.83-.53-3.92-.8-6.25-.8-2.73,0-5.12.37-7.15,1.1-2.04.73-3.58,1.75-4.65,3.05-1.07,1.3-1.6,2.82-1.6,4.55,0,2.13.8,3.83,2.4,5.1,1.6,1.27,3.72,2.28,6.35,3.05,2.63.77,5.52,1.52,8.65,2.25,2.87.6,5.75,1.33,8.65,2.2,2.9.87,5.58,2,8.05,3.4,2.47,1.4,4.45,3.28,5.95,5.65,1.5,2.37,2.25,5.35,2.25,8.95,0,3.87-1.03,7.27-3.1,10.2-2.07,2.93-5.17,5.2-9.3,6.8-4.13,1.6-9.27,2.4-15.4,2.4Z"/>
    <path class="cls-23" d="M712.61,747.61c-4.2,0-7.95-.6-11.25-1.8s-6.08-2.95-8.35-5.25c-2.27-2.3-4-5.08-5.2-8.35-1.2-3.27-1.8-6.97-1.8-11.1s.58-7.93,1.75-11.4c1.17-3.47,2.85-6.47,5.05-9,2.2-2.53,4.88-4.5,8.05-5.9,3.17-1.4,6.78-2.1,10.85-2.1,3.8,0,7.2.63,10.2,1.9,3,1.27,5.53,3.15,7.6,5.65s3.6,5.6,4.6,9.3,1.33,7.98,1,12.85l-40.9.3v-7.3l33.6-.3-4.4,4.1c.4-3.8.1-6.92-.9-9.35-1-2.43-2.43-4.23-4.3-5.4-1.87-1.17-4-1.75-6.4-1.75-2.73,0-5.13.72-7.2,2.15-2.07,1.43-3.65,3.5-4.75,6.2-1.1,2.7-1.65,5.98-1.65,9.85,0,5.8,1.28,10.13,3.85,13,2.57,2.87,6.08,4.3,10.55,4.3,2,0,3.68-.25,5.05-.75,1.37-.5,2.52-1.17,3.45-2,.93-.83,1.68-1.78,2.25-2.85.57-1.07,1.02-2.2,1.35-3.4l11,2.5c-.53,2.47-1.4,4.67-2.6,6.6-1.2,1.93-2.75,3.6-4.65,5-1.9,1.4-4.15,2.47-6.75,3.2-2.6.73-5.63,1.1-9.1,1.1Z"/>
    <path class="cls-34" d="M742.6,746.31v-52.3h10.5l-.3,16h1.8c.93-3.93,2.18-7.17,3.75-9.7,1.57-2.53,3.58-4.43,6.05-5.7,2.46-1.27,5.33-1.9,8.6-1.9,5.93,0,10.45,2.1,13.55,6.3,3.1,4.2,4.65,10.7,4.65,19.5v27.8h-12.7v-26.5c0-5.67-.85-9.82-2.55-12.45-1.7-2.63-4.22-3.95-7.55-3.95-2.8,0-5.17.88-7.1,2.65-1.93,1.77-3.42,4.1-4.45,7-1.03,2.9-1.58,6.08-1.65,9.55v23.7h-12.6Z"/>
    <path class="cls-35" d="M812.6,747.61c-2.87,0-5.43-.55-7.7-1.65-2.27-1.1-4.05-2.75-5.35-4.95-1.3-2.2-1.95-4.93-1.95-8.2,0-2.73.52-5.07,1.55-7,1.03-1.93,2.58-3.52,4.65-4.75,2.07-1.23,4.63-2.27,7.7-3.1,3.07-.83,6.67-1.55,10.8-2.15,2.27-.33,4.12-.67,5.55-1,1.43-.33,2.48-.85,3.15-1.55.67-.7,1-1.75,1-3.15,0-2.07-.72-3.85-2.15-5.35-1.43-1.5-3.75-2.25-6.95-2.25-1.93,0-3.78.33-5.55,1-1.77.67-3.28,1.72-4.55,3.15-1.27,1.43-2.13,3.32-2.6,5.65l-11.3-3.5c.73-2.67,1.8-4.98,3.2-6.95,1.4-1.97,3.13-3.65,5.2-5.05,2.07-1.4,4.43-2.43,7.1-3.1,2.67-.67,5.6-1,8.8-1,4.87,0,8.87.78,12,2.35,3.13,1.57,5.47,4,7,7.3,1.53,3.3,2.3,7.55,2.3,12.75v9.8c0,2.27.05,4.62.15,7.05s.23,4.87.4,7.3c.17,2.43.38,4.78.65,7.05h-11.3c-.27-1.87-.5-3.87-.7-6-.2-2.13-.37-4.3-.5-6.5h-1.6c-.93,2.53-2.27,4.85-4,6.95-1.73,2.1-3.85,3.77-6.35,5-2.5,1.23-5.38,1.85-8.65,1.85ZM817.6,738.31c1.33,0,2.68-.23,4.05-.7,1.37-.47,2.72-1.17,4.05-2.1,1.33-.93,2.57-2.08,3.7-3.45,1.13-1.37,2.1-2.98,2.9-4.85l-.2-8.9,2.4.4c-1.13.93-2.53,1.67-4.2,2.2-1.67.54-3.42.93-5.25,1.2-1.83.27-3.67.58-5.5.95-1.83.37-3.48.83-4.95,1.4-1.47.57-2.63,1.37-3.5,2.4-.87,1.03-1.3,2.45-1.3,4.25,0,2.27.73,4.03,2.2,5.3,1.47,1.27,3.33,1.9,5.6,1.9Z"/>
    <path class="cls-36" d="M872.4,747.51c-5.54,0-9.6-1.48-12.2-4.45-2.6-2.97-3.9-7.58-3.9-13.85v-25.1h-7.7l.2-10h5.1c1.93,0,3.37-.3,4.3-.9.93-.6,1.5-1.67,1.7-3.2l1.2-7.6h7.3v11.6h13.8v10.5h-13.8v24.2c0,2.47.58,4.27,1.75,5.4,1.17,1.13,2.92,1.7,5.25,1.7,1.27,0,2.52-.15,3.75-.45,1.23-.3,2.38-.82,3.45-1.55v12c-2.07.67-3.95,1.12-5.65,1.35-1.7.23-3.22.35-4.55.35Z"/>
    <path class="cls-37" d="M911.7,747.61c-5.13,0-9.67-1.05-13.6-3.15-3.93-2.1-7.02-5.2-9.25-9.3-2.23-4.1-3.35-9.15-3.35-15.15s1.15-11.22,3.45-15.25c2.3-4.03,5.42-7.05,9.35-9.05,3.93-2,8.37-3,13.3-3s9.67,1.03,13.6,3.1c3.93,2.07,7.03,5.15,9.3,9.25,2.27,4.1,3.4,9.18,3.4,15.25s-1.13,11.23-3.4,15.3c-2.27,4.07-5.38,7.08-9.35,9.05-3.97,1.97-8.45,2.95-13.45,2.95ZM912.2,738.01c2.8,0,5.17-.65,7.1-1.95,1.93-1.3,3.42-3.25,4.45-5.85,1.03-2.6,1.55-5.7,1.55-9.3,0-3.8-.55-7.05-1.65-9.75-1.1-2.7-2.67-4.78-4.7-6.25-2.03-1.46-4.58-2.2-7.65-2.2-2.67,0-5,.65-7,1.95-2,1.3-3.52,3.22-4.55,5.75-1.03,2.54-1.55,5.67-1.55,9.4,0,5.87,1.25,10.37,3.75,13.5,2.5,3.13,5.92,4.7,10.25,4.7Z"/>
    <path class="cls-22" d="M945.2,746.31v-52.3h10.6l-.2,18h1.8c.6-4.27,1.53-7.82,2.8-10.65,1.27-2.83,3.03-4.97,5.3-6.4,2.27-1.43,5.07-2.15,8.4-2.15.67,0,1.38.03,2.15.1.77.07,1.62.23,2.55.5l-.5,13.3c-1.07-.4-2.15-.68-3.25-.85-1.1-.17-2.12-.25-3.05-.25-2.6,0-4.85.67-6.75,2-1.9,1.33-3.43,3.22-4.6,5.65-1.17,2.43-2.05,5.32-2.65,8.65v24.4h-12.6Z"/>
  </g>
  <g>
    <path class="cls-25" d="M261,802.16l11.03-28.35h4.3l10.92,28.35h-4.03l-3.11-8.47h-12l-3.19,8.47h-3.92ZM269.37,790.26h9.52l-4.65-12.6h-.14l-4.72,12.6Z"/>
    <path class="cls-24" d="M300.8,802.16v-28.35h12.11c1.73,0,3.24.3,4.53.91,1.3.61,2.31,1.49,3.05,2.64.73,1.16,1.1,2.56,1.1,4.22,0,1.26-.27,2.41-.81,3.45-.54,1.04-1.4,1.87-2.59,2.5v.14c1.1,0,1.94.3,2.52.89.58.59.88,1.44.88,2.54v11.06h-3.85v-11.62h-13.05v11.62h-3.88ZM304.68,787.21h7.84c1.56,0,2.83-.44,3.8-1.31.97-.88,1.45-2.11,1.45-3.69s-.48-2.85-1.45-3.71c-.97-.86-2.24-1.29-3.8-1.29h-7.84v10.01Z"/>
    <path class="cls-26" d="M336.32,802.58c-1.89,0-3.58-.45-5.08-1.35-1.49-.9-2.67-2.16-3.54-3.8-.86-1.63-1.29-3.56-1.29-5.78s.43-4.18,1.29-5.81c.86-1.63,2.04-2.89,3.54-3.78,1.49-.89,3.18-1.33,5.08-1.33s3.65.44,5.14,1.33,2.66,2.15,3.5,3.78c.84,1.63,1.26,3.57,1.26,5.81s-.43,4.15-1.28,5.79c-.85,1.64-2.02,2.91-3.52,3.8s-3.2,1.33-5.11,1.33ZM336.32,799.15c1.87,0,3.35-.68,4.46-2.05s1.66-3.18,1.66-5.44-.55-4.11-1.66-5.46c-1.11-1.35-2.6-2.03-4.46-2.03s-3.33.68-4.45,2.03c-1.12,1.35-1.68,3.17-1.68,5.46s.56,4.08,1.68,5.44,2.6,2.05,4.45,2.05Z"/>
    <path class="cls-27" d="M356.41,802.54c-2.08,0-3.76-.59-5.06-1.77-1.29-1.18-1.94-2.7-1.94-4.57,0-1.98.65-3.53,1.94-4.64,1.29-1.11,3.13-1.66,5.51-1.66h6.12v-1.05c0-1.54-.42-2.74-1.24-3.59-.83-.85-1.99-1.28-3.48-1.28-1.24,0-2.26.29-3.06.86-.8.57-1.34,1.38-1.59,2.43h-3.85c.35-2.03,1.29-3.63,2.83-4.79s3.45-1.75,5.74-1.75c2.59,0,4.61.7,6.07,2.1,1.46,1.4,2.19,3.37,2.19,5.92v13.41h-3.57v-3.64h-.14c-.54,1.24-1.39,2.22-2.55,2.94-1.17.72-2.47,1.08-3.92,1.08ZM357.18,799.39c1.1,0,2.08-.26,2.96-.77.88-.51,1.57-1.21,2.08-2.08.51-.88.77-1.85.77-2.92v-.84h-5.88c-1.35,0-2.39.29-3.1.86-.71.57-1.07,1.37-1.07,2.4s.39,1.84,1.16,2.45c.77.61,1.8.91,3.08.91Z"/>
    <path class="cls-43" d="M372.41,802.16v-21h3.71v3.39h.14c.54-1.24,1.32-2.17,2.36-2.82,1.04-.64,2.26-.96,3.66-.96s2.69.34,3.8,1.03c1.11.69,1.95,1.67,2.54,2.96h.11c.7-1.28,1.61-2.27,2.73-2.96,1.12-.69,2.42-1.03,3.89-1.03s2.81.34,3.96,1.03c1.14.69,2.02,1.66,2.64,2.92.62,1.26.93,2.74.93,4.44v12.99h-3.78v-12.42c0-1.75-.42-3.11-1.26-4.08-.84-.97-2.01-1.45-3.5-1.45s-2.64.48-3.5,1.45c-.86.97-1.29,2.33-1.29,4.08v12.42h-3.78v-12.42c0-1.75-.43-3.11-1.28-4.08-.85-.97-2.02-1.45-3.52-1.45s-2.63.48-3.48,1.45c-.85.97-1.28,2.33-1.28,4.08v12.42h-3.78Z"/>
    <path class="cls-29" d="M415.87,802.58c-2.52,0-4.57-.62-6.14-1.87-1.58-1.25-2.43-2.92-2.57-5.02h3.71c.16,1.21.69,2.14,1.58,2.78s2.08.96,3.57.96c1.38,0,2.43-.27,3.15-.8.72-.54,1.08-1.29,1.08-2.27,0-1.54-1.06-2.53-3.18-2.98l-3.46-.77c-3.78-.79-5.67-2.66-5.67-5.6,0-1.87.7-3.38,2.1-4.53,1.4-1.16,3.23-1.73,5.5-1.73s4.09.59,5.55,1.77c1.46,1.18,2.28,2.77,2.47,4.78h-3.64c-.23-1.1-.74-1.94-1.52-2.54-.78-.6-1.79-.89-3.03-.89s-2.13.26-2.83.77c-.7.51-1.05,1.21-1.05,2.1,0,.7.25,1.27.73,1.7.49.43,1.27.76,2.35,1l3.5.74c1.91.42,3.34,1.11,4.29,2.08.95.97,1.42,2.24,1.42,3.8,0,2.01-.7,3.6-2.1,4.78-1.4,1.18-3.33,1.77-5.78,1.77Z"/>
    <path class="cls-44" d="M432.57,802.16c-1.07,0-1.91-.29-2.52-.86-.61-.57-.91-1.43-.91-2.57v-14.56h-3.57v-3.01h3.61v-6.3h3.71v6.3h5v3.01h-4.97v14.98h5.46v3.01h-5.81Z"/>
    <path class="cls-42" d="M450.67,802.58c-1.89,0-3.58-.45-5.08-1.35-1.49-.9-2.67-2.17-3.52-3.81-.85-1.65-1.28-3.59-1.28-5.83s.42-4.13,1.26-5.76,1.98-2.88,3.43-3.76c1.45-.89,3.1-1.33,4.97-1.33,1.75,0,3.31.4,4.67,1.19,1.37.79,2.44,1.94,3.24,3.43.79,1.49,1.19,3.25,1.19,5.29v1.68h-15.12c.14,2.12.77,3.82,1.89,5.08,1.12,1.26,2.55,1.89,4.3,1.89,1.26,0,2.33-.31,3.22-.95.89-.63,1.48-1.49,1.79-2.59h3.85c-.28,1.42-.84,2.64-1.68,3.66-.84,1.01-1.87,1.8-3.08,2.34s-2.57.82-4.06.82ZM444.61,789.45h11.27c-.16-1.73-.74-3.07-1.71-4.03-.98-.96-2.23-1.43-3.75-1.43s-2.75.48-3.78,1.45c-1.03.97-1.7,2.3-2.03,4.01Z"/>
    <path class="cls-28" d="M469.74,802.54c-2.08,0-3.76-.59-5.06-1.77-1.29-1.18-1.94-2.7-1.94-4.57,0-1.98.65-3.53,1.94-4.64,1.29-1.11,3.13-1.66,5.51-1.66h6.12v-1.05c0-1.54-.42-2.74-1.24-3.59-.83-.85-1.99-1.28-3.48-1.28-1.24,0-2.26.29-3.06.86-.8.57-1.34,1.38-1.59,2.43h-3.85c.35-2.03,1.29-3.63,2.83-4.79s3.45-1.75,5.74-1.75c2.59,0,4.61.7,6.07,2.1,1.46,1.4,2.19,3.37,2.19,5.92v13.41h-3.57v-3.64h-.14c-.54,1.24-1.39,2.22-2.55,2.94-1.17.72-2.47,1.08-3.92,1.08ZM470.51,799.39c1.1,0,2.08-.26,2.96-.77.88-.51,1.57-1.21,2.08-2.08.51-.88.77-1.85.77-2.92v-.84h-5.88c-1.35,0-2.39.29-3.1.86-.71.57-1.07,1.37-1.07,2.4s.39,1.84,1.16,2.45c.77.61,1.8.91,3.08.91Z"/>
    <path class="cls-45" d="M493.26,802.58c-1.75,0-3.28-.46-4.58-1.37s-2.32-2.19-3.04-3.83c-.72-1.65-1.08-3.55-1.08-5.72s.36-4.11,1.08-5.74c.72-1.63,1.74-2.9,3.04-3.81s2.83-1.37,4.58-1.37c3.08,0,5.21,1.27,6.41,3.81h.14v-11.79h3.78v29.4h-3.75v-3.43h-.14c-1.21,2.57-3.36,3.85-6.44,3.85ZM494.27,799.22c1.75,0,3.11-.55,4.08-1.66.97-1.11,1.45-2.56,1.45-4.36v-3.08c0-1.8-.48-3.25-1.45-4.36-.97-1.11-2.33-1.66-4.08-1.66s-3.24.69-4.32,2.06c-1.08,1.38-1.63,3.21-1.63,5.5s.54,4.12,1.63,5.5,2.53,2.06,4.32,2.06Z"/>
    <path class="cls-33" d="M531.48,802.61c-2.57,0-4.83-.61-6.77-1.84-1.95-1.22-3.47-2.93-4.55-5.13s-1.63-4.75-1.63-7.67.54-5.44,1.63-7.63,2.6-3.9,4.55-5.13c1.95-1.22,4.21-1.84,6.77-1.84,2.01,0,3.8.37,5.39,1.1,1.59.74,2.89,1.79,3.9,3.15s1.67,2.99,1.98,4.88h-4.03c-.28-1.7-1.07-3.07-2.36-4.1-1.29-1.03-2.92-1.54-4.88-1.54-1.82,0-3.41.46-4.78,1.38-1.36.92-2.42,2.21-3.15,3.87-.74,1.66-1.1,3.6-1.1,5.84s.37,4.19,1.1,5.84c.73,1.66,1.79,2.95,3.15,3.87,1.37.92,2.96,1.38,4.78,1.38,1.96,0,3.59-.51,4.88-1.54,1.29-1.03,2.08-2.38,2.36-4.06h4.03c-.3,1.87-.96,3.48-1.98,4.85-1.01,1.36-2.32,2.42-3.9,3.17-1.59.75-3.38,1.12-5.39,1.12Z"/>
    <path class="cls-31" d="M555.49,802.58c-1.89,0-3.58-.45-5.08-1.35-1.49-.9-2.67-2.16-3.54-3.8-.86-1.63-1.29-3.56-1.29-5.78s.43-4.18,1.29-5.81c.86-1.63,2.04-2.89,3.54-3.78,1.49-.89,3.18-1.33,5.08-1.33s3.65.44,5.14,1.33,2.66,2.15,3.5,3.78c.84,1.63,1.26,3.57,1.26,5.81s-.43,4.15-1.28,5.79c-.85,1.64-2.02,2.91-3.52,3.8s-3.2,1.33-5.11,1.33ZM555.49,799.15c1.87,0,3.35-.68,4.46-2.05s1.66-3.18,1.66-5.44-.55-4.11-1.66-5.46c-1.11-1.35-2.6-2.03-4.46-2.03s-3.33.68-4.45,2.03c-1.12,1.35-1.68,3.17-1.68,5.46s.56,4.08,1.68,5.44,2.6,2.05,4.45,2.05Z"/>
    <path class="cls-30" d="M570.26,802.16v-29.4h3.78v29.4h-3.78Z"/>
    <path class="cls-32" d="M580.2,802.16v-29.4h3.78v29.4h-3.78Z"/>
    <path class="cls-39" d="M598.71,802.58c-1.89,0-3.58-.45-5.08-1.35-1.49-.9-2.67-2.17-3.52-3.81-.85-1.65-1.28-3.59-1.28-5.83s.42-4.13,1.26-5.76,1.98-2.88,3.43-3.76c1.45-.89,3.1-1.33,4.97-1.33,1.75,0,3.31.4,4.67,1.19,1.37.79,2.44,1.94,3.24,3.43.79,1.49,1.19,3.25,1.19,5.29v1.68h-15.12c.14,2.12.77,3.82,1.89,5.08,1.12,1.26,2.55,1.89,4.3,1.89,1.26,0,2.33-.31,3.22-.95.89-.63,1.48-1.49,1.79-2.59h3.85c-.28,1.42-.84,2.64-1.68,3.66-.84,1.01-1.87,1.8-3.08,2.34s-2.57.82-4.06.82ZM592.66,789.45h11.27c-.16-1.73-.74-3.07-1.71-4.03-.98-.96-2.23-1.43-3.75-1.43s-2.75.48-3.78,1.45c-1.03.97-1.7,2.3-2.03,4.01Z"/>
    <path class="cls-38" d="M620.97,802.58c-1.87,0-3.54-.45-5.02-1.35-1.48-.9-2.65-2.16-3.5-3.8-.85-1.63-1.28-3.56-1.28-5.78s.43-4.18,1.28-5.81c.85-1.63,2.02-2.89,3.5-3.78,1.48-.89,3.16-1.33,5.02-1.33,1.47,0,2.82.27,4.04.82,1.22.55,2.26,1.37,3.11,2.45s1.44,2.46,1.77,4.11h-3.92c-.33-1.38-.94-2.38-1.84-3.01-.9-.63-1.96-.95-3.17-.95-1.8,0-3.25.68-4.36,2.03-1.11,1.35-1.66,3.17-1.66,5.46s.55,4.08,1.66,5.44,2.56,2.05,4.36,2.05c1.28,0,2.39-.34,3.31-1.02.92-.68,1.56-1.77,1.91-3.29h3.82c-.3,1.73-.89,3.16-1.75,4.31-.86,1.14-1.91,2-3.15,2.57-1.24.57-2.61.86-4.13.86Z"/>
    <path class="cls-40" d="M638.16,802.16c-1.07,0-1.91-.29-2.52-.86-.61-.57-.91-1.43-.91-2.57v-14.56h-3.57v-3.01h3.61v-6.3h3.71v6.3h5v3.01h-4.97v14.98h5.46v3.01h-5.81Z"/>
    <path class="cls-46" d="M649.57,778.29c-.65,0-1.21-.23-1.68-.7-.47-.47-.7-1.03-.7-1.68s.23-1.21.7-1.68,1.03-.7,1.68-.7,1.21.23,1.68.7c.47.47.7,1.03.7,1.68s-.23,1.21-.7,1.68-1.03.7-1.68.7ZM647.68,802.16v-21h3.78v21h-3.78Z"/>
    <path class="cls-41" d="M662.66,802.16l-8.12-21h3.92l6.33,16.97h.14l6.26-16.97h3.78l-8.12,21h-4.2Z"/>
    <path class="cls-47" d="M685.93,802.58c-1.89,0-3.58-.45-5.08-1.35-1.49-.9-2.67-2.17-3.52-3.81-.85-1.65-1.28-3.59-1.28-5.83s.42-4.13,1.26-5.76,1.98-2.88,3.43-3.76c1.45-.89,3.1-1.33,4.97-1.33,1.75,0,3.31.4,4.67,1.19,1.37.79,2.44,1.94,3.24,3.43.79,1.49,1.19,3.25,1.19,5.29v1.68h-15.12c.14,2.12.77,3.82,1.89,5.08,1.12,1.26,2.55,1.89,4.3,1.89,1.26,0,2.33-.31,3.22-.95.89-.63,1.48-1.49,1.79-2.59h3.85c-.28,1.42-.84,2.64-1.68,3.66-.84,1.01-1.87,1.8-3.08,2.34s-2.57.82-4.06.82ZM679.87,789.45h11.27c-.16-1.73-.74-3.07-1.71-4.03-.98-.96-2.23-1.43-3.75-1.43s-2.75.48-3.78,1.45c-1.03.97-1.7,2.3-2.03,4.01Z"/>
    <path class="cls-11" d="M710.15,802.16v-28.35h11.23c2.85,0,5.09.78,6.74,2.34,1.65,1.56,2.47,3.69,2.47,6.37s-.83,4.78-2.49,6.35c-1.66,1.58-3.9,2.36-6.72,2.36h-7.35v10.92h-3.88ZM714.04,787.84h7.14c1.73,0,3.09-.48,4.08-1.43.99-.96,1.49-2.25,1.49-3.88s-.5-2.96-1.49-3.9c-.99-.95-2.35-1.42-4.08-1.42h-7.14v10.64Z"/>
    <path class="cls-12" d="M735.17,802.16v-21h3.6v4.2h.14c.47-1.31,1.23-2.36,2.29-3.17,1.06-.8,2.36-1.21,3.9-1.21h1.54v3.36h-1.75c-1.94,0-3.41.62-4.43,1.86-1.01,1.24-1.52,2.91-1.52,5v10.96h-3.78Z"/>
    <path class="cls-13" d="M758.28,802.58c-1.89,0-3.58-.45-5.08-1.35-1.49-.9-2.67-2.16-3.54-3.8-.86-1.63-1.29-3.56-1.29-5.78s.43-4.18,1.29-5.81c.86-1.63,2.04-2.89,3.54-3.78,1.49-.89,3.18-1.33,5.08-1.33s3.65.44,5.14,1.33,2.66,2.15,3.5,3.78c.84,1.63,1.26,3.57,1.26,5.81s-.43,4.15-1.28,5.79c-.85,1.64-2.02,2.91-3.52,3.8s-3.2,1.33-5.11,1.33ZM758.28,799.15c1.87,0,3.35-.68,4.46-2.05s1.66-3.18,1.66-5.44-.55-4.11-1.66-5.46c-1.11-1.35-2.6-2.03-4.46-2.03s-3.33.68-4.45,2.03c-1.12,1.35-1.68,3.17-1.68,5.46s.56,4.08,1.68,5.44,2.6,2.05,4.45,2.05Z"/>
    <path class="cls-10" d="M772.94,810.56v-29.4h3.75v3.43h.14c1.21-2.57,3.36-3.85,6.44-3.85,1.75,0,3.28.46,4.58,1.37s2.32,2.18,3.04,3.81c.72,1.63,1.08,3.55,1.08,5.74s-.36,4.08-1.08,5.72c-.72,1.64-1.74,2.92-3.04,3.83s-2.83,1.37-4.58,1.37c-3.08,0-5.21-1.27-6.4-3.81h-.14v11.79h-3.78ZM782.25,799.22c1.82,0,3.27-.69,4.34-2.06s1.61-3.21,1.61-5.5-.54-4.12-1.61-5.5c-1.07-1.38-2.52-2.06-4.34-2.06s-3.11.55-4.08,1.66c-.97,1.11-1.45,2.56-1.45,4.36v3.08c0,1.8.48,3.24,1.45,4.32.97,1.08,2.33,1.65,4.08,1.7Z"/>
    <path class="cls-16" d="M805.42,802.58c-1.89,0-3.58-.45-5.08-1.35-1.49-.9-2.67-2.17-3.52-3.81-.85-1.65-1.28-3.59-1.28-5.83s.42-4.13,1.26-5.76,1.98-2.88,3.43-3.76c1.45-.89,3.1-1.33,4.97-1.33,1.75,0,3.31.4,4.67,1.19,1.37.79,2.44,1.94,3.24,3.43.79,1.49,1.19,3.25,1.19,5.29v1.68h-15.12c.14,2.12.77,3.82,1.89,5.08,1.12,1.26,2.55,1.89,4.3,1.89,1.26,0,2.33-.31,3.22-.95.89-.63,1.48-1.49,1.79-2.59h3.85c-.28,1.42-.84,2.64-1.68,3.66-.84,1.01-1.87,1.8-3.08,2.34s-2.57.82-4.06.82ZM799.36,789.45h11.27c-.16-1.73-.74-3.07-1.71-4.03-.98-.96-2.23-1.43-3.75-1.43s-2.75.48-3.78,1.45c-1.03.97-1.7,2.3-2.03,4.01Z"/>
    <path class="cls-14" d="M819.45,802.16v-21h3.6v4.2h.14c.47-1.31,1.23-2.36,2.29-3.17,1.06-.8,2.36-1.21,3.9-1.21h1.54v3.36h-1.75c-1.94,0-3.41.62-4.43,1.86-1.01,1.24-1.52,2.91-1.52,5v10.96h-3.78Z"/>
    <path class="cls-17" d="M839.33,802.16c-1.07,0-1.91-.29-2.52-.86-.61-.57-.91-1.43-.91-2.57v-14.56h-3.57v-3.01h3.61v-6.3h3.71v6.3h5v3.01h-4.97v14.98h5.46v3.01h-5.81Z"/>
    <path class="cls-15" d="M847.17,810.56v-3.01h4.76l1.92-5.28-8.79-21.11h3.92l6.69,16.42h.14l5.88-16.42h3.82l-7.91,21-1.86,4.93c-.42,1.1-.87,1.95-1.35,2.56-.48.61-1.28.91-2.4.91h-4.83Z"/>
  </g>
</svg>