<?xml version="1.0" encoding="UTF-8"?>
<svg id="Layer_1" data-name="Layer 1" xmlns="http://www.w3.org/2000/svg" xmlns:xlink="http://www.w3.org/1999/xlink" viewBox="30 30 920 620">
  <defs>
    <style>
      .cls-1 {
        fill: url(#linear-gradient-4);
      }

      .cls-2 {
        fill: url(#linear-gradient-3);
      }

      .cls-3 {
        fill: url(#linear-gradient-2);
      }

      .cls-4 {
        fill: url(#linear-gradient);
      }
    </style>
    <linearGradient id="linear-gradient" x1="39.83" y1="339.02" x2="939.81" y2="339.02" gradientUnits="userSpaceOnUse">
      <stop offset="0" stop-color="#5e0000"/>
      <stop offset="1" stop-color="#5e0000"/>
    </linearGradient>
    <linearGradient id="linear-gradient-2" x1="77.67" y1="339.02" x2="901.96" y2="339.02" gradientUnits="userSpaceOnUse">
      <stop offset="0" stop-color="#fff"/>
      <stop offset="1" stop-color="#fff"/>
    </linearGradient>
    <linearGradient id="linear-gradient-3" x1="104.07" y1="339.02" x2="875.57" y2="339.02" gradientUnits="userSpaceOnUse">
      <stop offset="0" stop-color="#9a0606"/>
      <stop offset="1" stop-color="#9a0606"/>
    </linearGradient>
    <linearGradient id="linear-gradient-4" x1="-3321.04" y1="-1130.19" x2="-3319.28" y2="-1130.19" gradientTransform="translate(666170.95 -217548.05) scale(200.5 -192.79)" xlink:href="#linear-gradient-2"/>
  </defs>
  <ellipse class="cls-4" cx="489.82" cy="339.02" rx="449.99" ry="298.95"/>
  <ellipse class="cls-3" cx="489.82" cy="339.02" rx="412.15" ry="273.82"/>
  <ellipse class="cls-2" cx="489.82" cy="339.02" rx="385.75" ry="256.27"/>
  <path class="cls-1" d="M393.14,491.57h0c-17.47,11.05-34.05,16.58-49.73,16.58h0c-10.05,0-16.82-2.35-20.31-7.06h0c5-3.88,7.51-9.69,7.51-17.43h0v-3.1c0-.85-.11-1.62-.34-2.3h0c-10.9-6.23-16.35-13.6-16.35-22.1,0-8.5,6.32-17.18,18.97-26.05h0c-3.71-4.7-5.56-9.72-5.56-15.05,0-5.33,1.25-10.3,3.75-14.92,2.55-4.65,5.99-8.7,10.32-12.16h0c9.16-7.62,18.16-11.43,27.01-11.43s15.12,2.22,18.83,6.67h0c-7.86,5.24-11.8,13.47-11.8,24.69s2.57,20.94,7.71,29.24c5.14,8.3,12.4,15.43,21.78,21.38h0c20.06,13.01,45.68,19.51,76.87,19.51h0c20.95,0,38.74-3.8,53.35-11.39h0c15.68-8.16,23.52-19.31,23.52-33.45h0c0-9.95-3.71-18.03-11.13-24.27h0c-11.53-9.69-29.62-19.92-54.29-30.69h0c-18.99-8.44-34.16-12.67-45.51-12.67h0c-11.57,0-24.33,2.98-38.27,8.93h0c3.71-7.06,5.56-13.63,5.56-19.72h0c0-1.39-2.08-3.19-6.23-5.4h0l-12.13-6.84c-38.16-22.27-60.72-42.95-67.69-62.05h0c-2.41-6.66-3.62-15-3.62-25.03s3.86-20.19,11.59-30.47c7.77-10.31,18.41-19.07,31.9-26.27h0c28.15-15.22,63.94-22.82,107.36-22.82h0c26.41,0,50.62,2.69,72.65,8.08h0c9.38,2.35,20.06,3.53,32.04,3.53h0c5.05,0,9.58-.17,13.6-.51,4.02-.34,7.57-1.76,10.66-4.25h0c2.81-2.64,4.22-4.99,4.22-7.06,0-2.07-.42-3.8-1.27-5.19h0c1.52-.42,3.64-.64,6.37-.64s5.72.6,8.98,1.79c3.26,1.16,6.21,2.78,8.85,4.85h0c5.9,4.7,8.85,10,8.85,15.9s-2.61,10.36-7.84,13.39h0c7.42,4.14,11.13,10.57,11.13,19.3h0c0,8.59-4.58,15.78-13.74,21.59h0c1.74,3.74,2.61,7.1,2.61,10.07s-.83,5.81-2.48,8.5-3.89,5-6.7,6.93h0c-6.34,4.31-12.35,6.46-18.03,6.46h0c-8.94,0-16.44-.98-22.52-2.93h0c3.71-5.53,5.56-11.46,5.56-17.81s-2.26-12.92-6.77-19.64c-4.47-6.72-10.72-12.57-18.77-17.55h0c-17.02-10.23-39.27-15.34-66.75-15.34h0c-17.47,0-31.77,3.39-42.89,10.16h0c-10.46,6.38-15.68,14.05-15.68,23.04h0c0,6.8,2.61,12.48,7.84,17.04h0c9.16,7.88,23.66,16.04,43.5,24.48h0l15.75,6.63c8.71,3.46,14.59,5.19,17.63,5.19s6.14-.2,9.18-.6c3.04-.42,6.41-.98,10.12-1.66h0c7.86-1.67,15.5-4.02,22.92-7.06h0l-4.22,11.6c-1.34,3.88-2.01,6.72-2.01,8.5h0c0,2.92,2.3,5.55,6.9,7.91h0c40.79,22.41,68.07,41.15,81.83,56.23h0c11.97,13.15,17.96,27.33,17.96,42.54s-3.93,28.29-11.8,39.23c-7.82,10.94-19.26,20.61-34.31,29.03h0c-33.2,18.81-76.29,28.22-129.28,28.22h0c-37.31,0-69.7-4.76-97.18-14.28ZM370.89,240.23h0c-8.31,2.24-12.47,7.99-12.47,17.26h0c0,18.96,19.97,39.77,59.92,62.43h0l19.64,11.22c6.75,3.88,9.74,6.86,8.98,8.93-.76,2.07-1.41,3.73-1.94,4.97-.58,1.25-1.18,2.42-1.81,3.53-.67,1.11-1.12,1.94-1.34,2.51h0c7.64-2.92,13.87-4.38,18.7-4.38h0c9.56,0,18.61,1.67,27.14,5.02h0c42.09,16.58,70.66,31.37,85.72,44.37h0c10.9,9.55,16.58,21.45,17.02,35.7h0c0,5.13-.54,9.42-1.61,12.88h0c11.53-4.7,17.29-12.17,17.29-22.4h0c0-9.97-2.12-17.65-6.37-23.04-4.24-5.41-9.2-10.23-14.88-14.45-5.67-4.22-13.05-8.81-22.12-13.77-9.03-4.99-20.2-10.38-33.51-16.19h0l-46.44-20.15c-38.2-15.9-67.22-32.7-87.06-50.41h0c-17.47-15.64-25.76-30.32-24.86-44.03Z"/>
</svg>
